<?xml version="1.0" encoding="UTF-8" standalone="no"?>
<svg
    width="80px"
    height="90px"
    viewBox="-20 0 75 90"
    version="1.1"
    fill="none"
    xmlns="http://www.w3.org/2000/svg"
    xmlns:svg="http://www.w3.org/2000/svg">
<path
    id="brokenfile"
    d="M -20,78.3642 -9.167,0 34.714,4.946 53.282,28.901 45.241,86.0102 Z M 25.858,31.891 30.672,9.696 -4.109,6.196 -13.963,73.3462 40.18,79.9732 46.722,34.698 Z M 1.616,61.4842 c -0.377,-0.496 -3.721,-3.296 -4.35,-4.162 8.899,-9.911 30.629,-9.788 36.664,3.324 -1.005,0.371 -5.495,2.315 -6.375,2.81 -2.518,-7.317 -17.265,-9.625 -25.939,-1.972 z M 18.348,34.388 14.682,37.148 9.167,30.506 1.66,34.536 -1.369,29.467 5.46,26.04 0.934,20.588 l 5.5,-3.68 4.39,6.439 7.819,-3.925 2.356,4.731 -7.047,3.783 z"
    fill-rule="evenodd"
    clip-rule="evenodd"
    fill="#000000"/>
</svg>
