<?xml version="1.0" encoding="UTF-8" standalone="no"?>
<svg
    width="96px"
    height="96px"
    viewBox="0 0 16 16"
    version="1.1"
    fill="none"
    xmlns="http://www.w3.org/2000/svg"
    xmlns:svg="http://www.w3.org/2000/svg">
<path
    id="DataMatrixBG"
    stroke-width="0"
    fill="#ffffff"
    d="M 0 0 V 16 H 16 V 0 Z"/>
<path
    id="DataMatrix"
    stroke-width="0"
    fill="#000000"
    d="M 0 0 V 16 H 16 V 15 H 15 V 14 H 14 V 15 H 13 V 14 H 14 V 13 H 15 V 14 H 16 V 13 H 15 V 12 H 16 V 11 H 14 V 12 H 13 V 9 H 12 V 10 H 11 V 11 H 10 V 10 H 11 V 9 H 10 V 8 H 11 V 9 H 12 V 8 H 13 V 9 H 15 V 10 H 16 V 9 H 15 V 8 H 16 V 7 H 14 V 6 H 16 V 5 H 13 V 6 H 11 V 5 H 13 V 4 H 12 V 3 H 13 V 4 H 16 V 3 H 14 V 2 H 16 V 1 H 15 V 0 H 14 V 1 H 13 V 0 H 12 V 1 H 11 V 0 H 10 V 1 H 9 V 0 H 8 V 2 H 7 V 0 H 6 V 1 H 5 V 0 H 4 V 2 H 7 V 3 H 5 V 4 H 8 V 3 H 10 V 2 H 11 V 3 H 10 V 5 H 9 V 4 H 8 V 6 H 7 V 5 H 4 V 4 H 3 V 7 H 2 V 3 H 3 V 0 H 2 V 2 H 1 V 0 Z M 4 7 H 6 V 9 H 5 V 10 H 8 V 9 H 7 V 8 H 8 V 7 H 9 V 10 H 8 V 12 H 6 V 11 H 5 V 12 H 4 V 14 H 3 V 15 H 2 V 13 H 3 V 12 H 4 V 11 H 5 V 10 H 3 V 11 H 2 V 12 H 1 V 9 H 3 V 8 H 4 Z M 9 12 H 10 V 14 H 11 V 12 H 12 V 15 H 9 V 14 H 8 V 15 H 6 V 14 H 5 V 13 H 6 V 14 H 7 V 13 H 9 Z"/>
</svg>
