<?xml version="1.0" encoding="UTF-8" standalone="no"?>
<svg
    width="424px"
    height="64px"
    viewBox="0 0 106 16"
    version="1.1"
    fill="none"
    xmlns="http://www.w3.org/2000/svg"
    xmlns:svg="http://www.w3.org/2000/svg">
<path
    id="LongLogoBG"
    stroke-width="0"
    fill="#000000"
    d="M 0 0 V 16 H 106 V 0 Z"/>
<path
    id="LongLogoE1"
    stroke-width="0"
    fill="#ffffff"
    d="M 3 10 H 10 V 7 A 5 5 0 0 0 0 7 V 11 A 5 5 0 0 0 10 11 H 7 A 2 2 0 0 1 3 11 Z"/>
<path
    id="LongLogoK1"
    stroke-width="0"
    fill="#ffffff"
    d="M 12 0 V 16 H 15 V 9.5 H 16.5 L 20 16 H 23 L 19 8 L 23 0 H 20 L 16.5 6.5 H 15 V 0 Z"/>
<path
    id="LongLogoU1"
    stroke-width="0"
    fill="#ffffff"
    d="M 24 0 V 11 A 5 5 0 0 0 34 11 V 0 H 31 V 11 A 2 2 0 0 1 27 11 V 0 Z"/>
<path
    id="LongLogoN1"
    stroke-width="0"
    fill="#ffffff"
    d="M 36 16 V 5 A 5 5 0 0 1 46 5 V 16 H 43 V 5 A 2 2 0 0 0 39 5 V 16 Z"/>
<path
    id="LongLogoA1"
    stroke-width="0"
    fill="#ffffff"
    d="M 48 16 V 5 A 5 5 0 0 1 58 5 V 16 H 55 V 5 A 2 2 0 0 0 51 5 V 7 H 55 V 10 H 51 V 16 Z"/>
<path
    id="LongLogoZ1"
    stroke-width="0"
    fill="#ffffff"
    d="M 60 0 H 70 V 3 L 63.5 13 H 70 V 16 H 60 V 13 L 66.5 3 H 60 Z"/>
<path
    id="LongLogoA2"
    stroke-width="0"
    fill="#ffffff"
    d="M 72 16 V 5 A 5 5 0 0 1 82 5 V 16 H 79 V 5 A 2 2 0 0 0 75 5 V 7 H 79 V 10 H 75 V 16 Z"/>
<path
    id="LongLogoN2"
    stroke-width="0"
    fill="#ffffff"
    d="M 84 16 V 5 A 5 5 0 0 1 94 5 V 16 H 91 V 5 A 2 2 0 0 0 87 5 V 16 Z"/>
<path
    id="LongLogoU2"
    stroke-width="0"
    fill="#ffffff"
    d="M 96 0 V 11 A 5 5 0 0 0 106 11 V 0 H 103 V 11 A 2 2 0 0 1 99 11 V 0 Z"/>
</svg>
