<?xml version="1.0" encoding="UTF-8" standalone="no"?>
<svg
    width="424px"
    height="64px"
    viewBox="0 0 106 16"
    version="1.1"
    fill="none"
    xmlns="http://www.w3.org/2000/svg"
    xmlns:svg="http://www.w3.org/2000/svg">
<path
    id="LongLogoE1"
    stroke-width="0"
    fill="#ffffff"
    d="M 3 10 L 10 10 L 10 7 A 5 5 0 0 0 0 7 L 0 11 A 5 5 0 0 0 10 11 L 7 11 A 2 2 0 0 1 3 11 Z"/>
<path
    id="LongLogoK1"
    stroke-width="0"
    fill="#ffffff"
    d="M 12 0 L 12 16 L 15 16 L 15 10 L 16.5 10 L 20 16 L 23 16 L 19 8.5 L 23 0 L 20 0 L 16.5 7 L 15 7 L 15 0 Z"/>
<path
    id="LongLogoU1"
    stroke-width="0"
    fill="#ffffff"
    d="M 24 0 L 24 11 A 5 5 0 0 0 34 11 L 34 0 L 31 0 L 31 11 A 2 2 0 0 1 27 11 L 27 0 Z"/>
<path
    id="LongLogoN1"
    stroke-width="0"
    fill="#ffffff"
    d="M 36 16 L 36 5 A 5 5 0 0 1 46 5 L 46 16 L 43 16 L 43 5 A 2 2 0 0 0 39 5 L 39 16 Z"/>
<path
    id="LongLogoA1"
    stroke-width="0"
    fill="#ffffff"
    d="M 48 16 L 48 5 A 5 5 0 0 1 58 5 L 58 16 L 55 16 L 55 5 A 2 2 0 0 0 51 5 L 51 7 L 55 7 L 55 10 L 51 10 L 51 16 Z"/>
<path
    id="LongLogoZ1"
    stroke-width="0"
    fill="#ffffff"
    d="M 60 0 L 70 0 L 70 3 L 63.5 13 L 70 13 L 70 16 L 60 16 L 60 13 L 66.5 3 L 60 3 Z"/>
<path
    id="LongLogoA2"
    stroke-width="0"
    fill="#ffffff"
    d="M 72 16 L 72 5 A 5 5 0 0 1 82 5 L 82 16 L 79 16 L 79 5 A 2 2 0 0 0 75 5 L 75 7 L 79 7 L 79 10 L 75 10 L 75 16 Z"/>
<path
    id="LongLogoN2"
    stroke-width="0"
    fill="#ffffff"
    d="M 84 16 L 84 5 A 5 5 0 0 1 94 5 L 94 16 L 91 16 L 91 5 A 2 2 0 0 0 87 5 L 87 16 Z"/>
<path
    id="LongLogoU2"
    stroke-width="0"
    fill="#ffffff"
    d="M 96 0 L 96 11 A 5 5 0 0 0 106 11 L 106 0 L 103 0 L 103 11 A 2 2 0 0 1 99 11 L 99 0 Z"/>
</svg>
