<?xml version="1.0" encoding="UTF-8" standalone="no"?>
<svg
    width="99px"
    height="99px"
    viewBox="0 0 33 33"
    version="1.1"
    fill="none"
    xmlns="http://www.w3.org/2000/svg"
    xmlns:svg="http://www.w3.org/2000/svg">
<path
    id="rectBG"
    stroke-width="0"
    fill="#ffffff"
    d="M 0 0 L 0 33 L 33 33 L 33 0"/>
<path
    id="QR"
    stroke-width="0"
    fill="#000000"
    d="M 0 0 V 7 H 7 V 0 Z M 9 0 V 2 H 8 V 4 H 9 V 6 H 10 V 7 H 11 V 6 V 5 H 12 V 4 H 13 V 3 H 14 V 2 H 16 V 1 H 18 V 2 H 17 V 3 H 19 V 4 H 20 V 5 H 21 V 4 H 22 V 2 H 21 V 3 H 20 V 1 H 19 V 0 H 15 V 1 H 13 V 2 H 12 V 3 H 11 V 4 H 10 V 3 H 11 V 2 V 1 H 10 V 0 Z M 11 1 H 12 V 0 H 11 Z M 21 5 V 6 H 22 V 5 Z M 22 6 V 7 H 23 V 6 Z M 23 7 V 9 H 24 V 7 Z M 24 7 H 25 V 5 H 24 Z M 24 5 V 4 H 25 V 0 H 24 V 2 H 23 V 5 Z M 24 9 V 10 H 25 V 11 H 26 V 9 Z M 26 11 V 13 H 27 V 12 H 28 V 13 H 30 V 12 H 29 V 11 H 28 V 10 H 29 V 11 H 30 V 9 H 31 V 8 H 29 V 9 H 27 V 11 Z M 30 11 V 12 H 32 V 11 H 33 V 10 H 31 V 11 Z M 32 12 V 13 H 33 V 12 Z M 32 13 H 30 V 14 H 28 V 17 H 27 V 18 H 28 V 19 H 29 V 21 H 30 V 20 H 32 V 19 H 31 V 18 H 30 V 17 H 29 V 15 H 30 V 17 H 33 V 15 H 31 V 14 H 32 Z M 32 20 V 21 H 33 V 20 Z M 29 21 H 28 V 19 H 27 V 20 H 26 V 23 H 27 V 22 H 29 Z M 27 23 V 24 H 25 V 23 H 24 V 22 H 23 V 24 H 21 V 26 H 23 V 25 H 24 V 27 H 21 V 26 H 19 V 25 H 18 V 27 H 20 V 28 H 21 V 29 H 22 V 30 H 24 V 29 H 23 V 28 H 24 V 29 H 25 V 30 H 26 V 29 H 27 V 30 H 28 V 29 H 30 V 28 H 31 V 32 H 33 V 30 H 32 V 27 H 31 V 26 H 32 V 25 H 29 V 23 Z M 32 25 H 33 V 24 H 32 Z M 32 24 V 23 H 30 V 24 Z M 32 23 H 33 V 22 H 32 Z M 31 32 H 30 V 33 H 31 Z M 30 32 V 30 H 28 V 31 H 29 V 32 Z M 29 32 H 28 V 33 H 29 Z M 21 29 H 20 V 30 H 21 Z M 20 30 H 19 V 31 H 20 Z M 20 31 V 33 H 22 V 32 H 21 V 31 Z M 22 32 H 23 V 33 H 25 V 32 H 24 V 31 H 22 Z M 25 32 H 27 V 31 H 25 Z M 20 29 V 28 H 19 V 29 Z M 19 25 H 20 V 24 H 21 V 23 H 22 V 18 H 23 V 17 H 22 V 14 H 24 V 13 H 25 V 11 H 24 V 10 H 23 V 12 H 22 V 10 H 23 V 9 H 22 V 7 H 21 V 9 H 20 V 8 H 19 V 6 H 18 V 7 H 17 V 8 H 18 V 9 H 12 V 8 H 11 V 9 H 10 V 8 H 9 V 10 H 10 V 11 H 9 V 10 H 6 V 11 H 8 V 14 H 6 V 15 H 7 V 16 H 6 V 17 H 7 V 18 H 8 V 19 H 7 V 20 H 9 V 19 H 10 V 21 H 7 V 22 H 6 V 21 H 5 V 22 H 4 V 23 H 3 V 24 H 4 V 25 H 5 V 23 H 9 V 22 H 10 V 24 H 9 V 25 H 10 V 27 H 11 V 25 H 12 V 23 H 13 V 25 H 12 V 26 H 14 V 25 H 15 V 26 H 14 V 27 H 11 V 28 H 8 V 30 H 9 V 29 H 10 V 30 H 11 V 29 H 14 V 28 H 15 V 27 H 16 V 24 H 19 Z M 16 27 V 28 H 17 V 27 Z M 17 28 V 29 H 15 V 30 H 16 V 31 H 14 V 32 H 13 V 33 H 15 V 32 H 17 V 31 H 18 V 28 Z M 17 32 V 33 H 18 V 32 Z M 14 31 V 30 H 13 V 31 Z M 10 30 H 9 V 33 H 10 V 32 H 11 V 31 H 10 Z M 9 25 H 8 V 27 H 9 Z M 8 25 V 24 H 6 V 25 Z M 3 24 H 1 V 21 H 0 V 25 H 3 Z M 3 23 V 21 H 2 V 23 Z M 3 21 H 5 V 19 H 3 V 18 H 4 V 17 H 2 V 20 H 3 Z M 2 17 V 16 H 6 V 15 H 3 V 14 H 2 V 15 H 0 V 18 H 1 V 17 Z M 3 14 H 4 V 13 H 3 Z M 5 19 H 7 V 18 H 5 Z M 6 21 H 7 V 20 H 6 Z M 6 14 V 13 H 7 V 12 H 6 V 11 H 5 V 14 Z M 5 11 V 8 H 3 V 9 H 4 V 10 H 3 V 9 H 2 V 10 H 1 V 11 Z M 1 11 H 0 V 12 H 1 Z M 1 10 V 9 H 0 V 10 Z M 17 7 V 6 H 18 V 4 H 17 V 3 H 16 V 7 Z M 21 7 V 6 H 20 V 7 Z M 25 13 V 14 H 26 V 13 Z M 25 14 H 24 V 15 H 23 V 16 H 25 Z M 23 18 V 20 H 26 V 19 H 24 V 18 Z M 24 18 H 25 V 17 H 24 Z M 24 22 H 25 V 21 H 24 Z M 27 17 V 16 H 26 V 17 Z M 13 4 V 5 H 14 V 8 H 15 V 4 Z M 9 6 H 8 V 7 H 9 Z M 21 0 V 1 H 23 V 0 Z M 26 0 V 7 H 33 V 0 Z M 1 1 H 6 V 6 H 1 Z M 27 1 H 32 V 6 H 27 Z M 2 2 V 5 H 5 V 2 Z M 28 2 V 5 H 31 V 2 Z M 12 6 V 7 H 13 V 6 Z M 6 8 V 9 H 8 V 8 Z M 11 10 H 21 V 18 H 13 V 20 H 21 V 22 H 11 Z M 13 12 V 16 H 15 V 12 Z M 17 12 V 16 H 19 V 12 Z M 0 13 V 14 H 1 V 13 Z M 9 13 H 10 V 16 H 9 V 17 H 10 V 18 H 9 V 17 H 8 V 16 H 9 Z M 14 23 H 15 V 24 H 14 Z M 25 25 H 28 V 28 H 25 Z M 0 26 V 33 H 7 V 26 Z M 26 26 V 27 H 27 V 26 Z M 29 26 H 30 V 27 H 29 Z M 1 27 H 6 V 32 H 1 Z M 2 28 V 31 H 5 V 28 Z"/>
</svg>
